<svg width="74" height="74" viewBox="0 0 74 74" fill="none" xmlns="http://www.w3.org/2000/svg">
<mask id="mask0_1886_5554" style="mask-type:alpha" maskUnits="userSpaceOnUse" x="0" y="0" width="74" height="74">
<rect width="74" height="74" transform="matrix(-1 0 0 1 74 0)" fill="#FFCA64"/>
</mask>
<g mask="url(#mask0_1886_5554)">
<path d="M55.2124 32.2989C54.5521 22.6349 46.5114 15 36.6755 15C26.8395 15 18.8057 22.6349 18.1454 32.2989C10.8269 32.6566 5.00098 38.7094 5.00098 46.1174C5.00098 53.5253 11.1983 59.9565 18.8401 59.9565H54.5109C62.1526 59.9565 68.35 53.7591 68.35 46.1174C68.35 38.4756 62.5241 32.6566 55.2056 32.292L55.2124 32.2989Z" fill="url(#paint0_radial_1886_5554)"/>
<path style="mix-blend-mode:overlay" d="M36.6833 34.0185C31.4695 29.7883 29.4405 23.3571 32.1367 19.6429C34.8399 15.9286 41.2573 16.3482 46.4711 20.5714C51.6779 24.7947 53.7139 31.2396 51.0107 34.947C48.3076 38.6613 41.8901 38.2417 36.6833 34.0185Z" fill="url(#paint1_radial_1886_5554)"/>
<path style="mix-blend-mode:overlay" opacity="0.4" d="M55.3084 46.5095C51.2158 43.1873 49.6131 38.1248 51.7385 35.2084C53.8639 32.2852 58.9057 32.6153 62.9983 35.9375C67.0909 39.2597 68.6866 44.3222 66.5681 47.2386C64.4427 50.1618 59.4009 49.8317 55.3084 46.5095Z" fill="url(#paint2_radial_1886_5554)"/>
<path style="mix-blend-mode:overlay" opacity="0.2" d="M14.8983 46.9771C11.8787 42.2655 8.36395 39.9956 7.05019 41.9078C5.74332 43.8199 7.12585 49.1919 10.1454 53.9035C13.1719 58.6151 16.6798 60.885 17.9935 58.9728C19.3073 57.0538 17.9179 51.6887 14.8983 46.9702V46.9771Z" fill="url(#paint3_radial_1886_5554)"/>
</g>
<defs>
<radialGradient id="paint0_radial_1886_5554" cx="0" cy="0" r="1" gradientUnits="userSpaceOnUse" gradientTransform="translate(18.6368 21.1719) rotate(-180) scale(54.1472 55.8193)">
<stop stop-color="#F0FAFF"/>
<stop offset="0.2" stop-color="#C4F2FE"/>
<stop offset="1" stop-color="#1F76FE"/>
</radialGradient>
<radialGradient id="paint1_radial_1886_5554" cx="0" cy="0" r="1" gradientUnits="userSpaceOnUse" gradientTransform="translate(115.832 -76.8017) rotate(126.03) scale(8.34088 12.1322)">
<stop stop-color="white"/>
<stop offset="0.1" stop-color="white" stop-opacity="0.85"/>
<stop offset="0.29" stop-color="white" stop-opacity="0.59"/>
<stop offset="0.47" stop-color="white" stop-opacity="0.38"/>
<stop offset="0.63" stop-color="white" stop-opacity="0.22"/>
<stop offset="0.78" stop-color="white" stop-opacity="0.1"/>
<stop offset="0.91" stop-color="white" stop-opacity="0.03"/>
<stop offset="1" stop-color="white" stop-opacity="0"/>
</radialGradient>
<radialGradient id="paint2_radial_1886_5554" cx="0" cy="0" r="1" gradientUnits="userSpaceOnUse" gradientTransform="translate(134.094 -63.8221) rotate(126.03) scale(6.55074 9.52835)">
<stop stop-color="white"/>
<stop offset="0.1" stop-color="white" stop-opacity="0.85"/>
<stop offset="0.29" stop-color="white" stop-opacity="0.59"/>
<stop offset="0.47" stop-color="white" stop-opacity="0.38"/>
<stop offset="0.63" stop-color="white" stop-opacity="0.22"/>
<stop offset="0.78" stop-color="white" stop-opacity="0.1"/>
<stop offset="0.91" stop-color="white" stop-opacity="0.03"/>
<stop offset="1" stop-color="white" stop-opacity="0"/>
</radialGradient>
<radialGradient id="paint3_radial_1886_5554" cx="0" cy="0" r="1" gradientUnits="userSpaceOnUse" gradientTransform="translate(12.5113 50.4132) rotate(-25.71) scale(3.34972 9.7477)">
<stop stop-color="white"/>
<stop offset="0.1" stop-color="white" stop-opacity="0.85"/>
<stop offset="0.29" stop-color="white" stop-opacity="0.59"/>
<stop offset="0.47" stop-color="white" stop-opacity="0.38"/>
<stop offset="0.63" stop-color="white" stop-opacity="0.22"/>
<stop offset="0.78" stop-color="white" stop-opacity="0.1"/>
<stop offset="0.91" stop-color="white" stop-opacity="0.03"/>
<stop offset="1" stop-color="white" stop-opacity="0"/>
</radialGradient>
</defs>
</svg>
