<svg width="74" height="74" viewBox="0 0 74 74" fill="none" xmlns="http://www.w3.org/2000/svg">
<mask id="mask0_1886_5582" style="mask-type:alpha" maskUnits="userSpaceOnUse" x="0" y="0" width="74" height="74">
<rect width="74" height="74" transform="matrix(-1 0 0 1 74 0)" fill="#FFCA64"/>
</mask>
<g mask="url(#mask0_1886_5582)">
<path d="M62.469 47.874L56.7513 44.5728L58.521 43.5518C59.9249 42.7435 60.4099 40.9482 59.5931 39.5443C58.7848 38.1404 56.9895 37.6639 55.5856 38.4722L50.8805 41.1864L46.5412 38.6764C46.7283 37.8936 46.839 37.0853 46.839 36.2515C46.839 35.4177 46.7283 34.6094 46.5412 33.8266L50.8805 31.3166L55.5856 34.0308C56.0451 34.2946 56.5556 34.4222 57.0491 34.4222C58.0616 34.4222 59.0486 33.8947 59.5931 32.9502C60.4014 31.5463 59.9249 29.7511 58.521 28.9428L56.7513 27.9218L62.469 24.6205C63.8728 23.8122 64.3493 22.0169 63.541 20.613C62.7327 19.2091 60.9374 18.7241 59.5335 19.5409L53.8159 22.8422V20.8002C53.8159 19.1751 52.5056 17.8648 50.8805 17.8648C49.2639 17.8648 47.9451 19.1751 47.9451 20.8002V26.2286L43.5972 28.7386C42.4231 27.624 40.9937 26.7816 39.4026 26.3137V21.3022L44.1077 18.588C45.5116 17.7797 45.9881 15.9844 45.1798 14.5805C44.3715 13.1766 42.5762 12.6917 41.1723 13.5085L39.4026 14.5295V7.93544C39.4026 6.31884 38.0923 5.00003 36.4672 5.00003C34.8421 5.00003 33.5318 6.31033 33.5318 7.93544V14.538L31.762 13.517C30.3581 12.7087 28.5628 13.1851 27.7545 14.589C26.9462 15.9929 27.4227 17.7882 28.8266 18.5965L33.5318 21.3107V26.3222C31.9407 26.7901 30.5113 27.641 29.3371 28.7556L24.9893 26.2456V20.8172C24.9893 19.2006 23.679 17.8818 22.0539 17.8818C20.4288 17.8818 19.1185 19.1921 19.1185 20.8172V22.8592L13.4008 19.558C11.9969 18.7412 10.2016 19.2261 9.39333 20.63C8.58502 22.0339 9.0615 23.8292 10.4654 24.6375L16.1831 27.9388L14.4133 28.9598C13.0094 29.7681 12.5329 31.5634 13.3412 32.9673C13.8858 33.9117 14.8728 34.4307 15.8853 34.4307C16.3788 34.4307 16.8893 34.3031 17.3487 34.0393L22.0539 31.3251L26.4017 33.8351C26.2145 34.6179 26.1039 35.4262 26.1039 36.26C26.1039 37.0939 26.2145 37.9022 26.4017 38.6849L22.0539 41.1949L17.3487 38.4807C15.9448 37.6639 14.1495 38.1489 13.3412 39.5528C12.5244 40.9567 13.0094 42.752 14.4133 43.5603L16.1831 44.5813L10.4654 47.8825C9.0615 48.6908 8.58502 50.4861 9.39333 51.89C9.93787 52.8345 10.9248 53.3535 11.9373 53.3535C12.4393 53.3535 12.9413 53.2258 13.4008 52.9621L19.1185 49.6608V51.7028C19.1185 53.3194 20.4288 54.6382 22.0539 54.6382C23.679 54.6382 24.9893 53.3279 24.9893 51.7028V46.2744L29.3371 43.7645C30.5113 44.8791 31.9407 45.7214 33.5318 46.1979V51.2093L28.8266 53.9235C27.4227 54.7318 26.9377 56.5271 27.7545 57.931C28.5628 59.3349 30.3581 59.8199 31.762 59.0031L33.5318 57.9821V64.5846C33.5318 66.2012 34.8421 67.52 36.4672 67.52C38.0923 67.52 39.4026 66.2097 39.4026 64.5846V57.9821L41.1723 59.0031C41.6318 59.2668 42.1423 59.3945 42.6358 59.3945C43.6483 59.3945 44.6353 58.8669 45.1798 57.931C45.9881 56.5271 45.5116 54.7318 44.1077 53.9235L39.4026 51.2093V46.1979C40.9937 45.7299 42.4231 44.8876 43.5972 43.773L47.9451 46.283V51.7113C47.9451 53.3365 49.2554 54.6468 50.8805 54.6468C52.5056 54.6468 53.8159 53.3365 53.8159 51.7113V49.6693L59.5335 52.9706C59.993 53.2344 60.5035 53.362 60.997 53.362C62.0095 53.362 62.9965 52.8345 63.541 51.8985C64.3493 50.4946 63.8728 48.6994 62.469 47.8911V47.874ZM36.4757 40.744C33.9997 40.744 31.9832 38.7275 31.9832 36.2515C31.9832 33.7756 33.9997 31.7591 36.4757 31.7591C38.9516 31.7591 40.9681 33.7756 40.9681 36.2515C40.9681 38.7275 38.9516 40.744 36.4757 40.744Z" fill="url(#paint0_radial_1886_5582)"/>
</g>
<defs>
<radialGradient id="paint0_radial_1886_5582" cx="0" cy="0" r="1" gradientUnits="userSpaceOnUse" gradientTransform="translate(54.403 23.7867) scale(53.3054)">
<stop stop-color="#7EE3F6"/>
<stop offset="1" stop-color="#0A4FBB"/>
</radialGradient>
</defs>
</svg>
