<svg width="74" height="74" viewBox="0 0 74 74" fill="none" xmlns="http://www.w3.org/2000/svg">
<mask id="mask0_1886_5561" style="mask-type:alpha" maskUnits="userSpaceOnUse" x="0" y="0" width="74" height="74">
<rect width="74" height="74" transform="matrix(-1 0 0 1 74 0)" fill="#FFCA64"/>
</mask>
<g mask="url(#mask0_1886_5561)">
<path d="M51.6092 21.1659C51.0869 13.5223 44.7273 7.48369 36.9477 7.48369C29.1682 7.48369 22.814 13.5223 22.2918 21.1659C16.5034 21.4487 11.8955 26.2361 11.8955 32.0953C11.8955 37.9544 16.7972 43.041 22.8412 43.041H51.0543C57.0983 43.041 62 38.1394 62 32.0953C62 26.0512 57.3921 21.4487 51.6037 21.1604L51.6092 21.1659Z" fill="url(#paint0_radial_1886_5561)"/>
<path style="mix-blend-mode:overlay" d="M36.9541 22.526C32.8304 19.1802 31.2256 14.0936 33.3581 11.1559C35.4962 8.21817 40.5719 8.55003 44.6956 11.8903C48.8138 15.2306 50.4241 20.3281 48.2861 23.2604C46.1481 26.1981 41.0724 25.8663 36.9541 22.526Z" fill="url(#paint1_radial_1886_5561)"/>
<path style="mix-blend-mode:overlay" opacity="0.4" d="M51.6859 32.4055C48.4489 29.7779 47.1814 25.7739 48.8624 23.4672C50.5434 21.1552 54.5311 21.4163 57.768 24.0439C61.005 26.6715 62.2671 30.6755 60.5915 32.9822C58.9105 35.2943 54.9228 35.0332 51.6859 32.4055Z" fill="url(#paint2_radial_1886_5561)"/>
<path style="mix-blend-mode:overlay" opacity="0.2" d="M19.7238 32.7754C17.3356 29.0488 14.5556 27.2536 13.5165 28.7659C12.4829 30.2783 13.5764 34.5271 15.9646 38.2537C18.3583 41.9802 21.1329 43.7755 22.1719 42.2631C23.211 40.7453 22.1121 36.5019 19.7238 32.7699V32.7754Z" fill="url(#paint3_radial_1886_5561)"/>
<path d="M23.863 55.2362C22.8883 56.927 20.7144 57.5136 19.0151 56.5302C17.3157 55.5554 16.7377 53.3816 17.7125 51.6822C18.6959 49.9829 24.7515 46.5841 24.7515 46.5841C24.7515 46.5841 24.8378 53.5282 23.8544 55.2276L23.863 55.2362Z" fill="url(#paint4_radial_1886_5561)"/>
<path style="mix-blend-mode:overlay" d="M17.8232 54.6495C17.2712 53.2175 17.6076 51.6993 18.5737 51.2766C19.5399 50.8453 20.7648 51.6648 21.3082 53.1054C21.8603 54.546 21.5239 56.0556 20.5578 56.4783C19.5916 56.9096 18.3667 56.0901 17.8232 54.6495Z" fill="url(#paint5_radial_1886_5561)"/>
<path d="M29.5811 65.6219C28.5977 67.3126 26.4325 67.8992 24.7332 66.9158C23.0338 65.9411 22.4558 63.7672 23.4392 62.0679C24.4226 60.3685 30.4783 56.9698 30.4783 56.9698C30.4783 56.9698 30.5645 63.9139 29.5811 65.6133V65.6219Z" fill="url(#paint6_radial_1886_5561)"/>
<path style="mix-blend-mode:overlay" d="M23.543 65.0355C22.9909 63.6035 23.3273 62.0853 24.2934 61.6626C25.2596 61.2313 26.4845 62.0508 27.028 63.4914C27.58 64.932 27.2436 66.4416 26.2861 66.8642C25.32 67.2956 24.095 66.4761 23.5516 65.0355H23.543Z" fill="url(#paint7_radial_1886_5561)"/>
<path d="M59.9151 55.2362C58.9403 56.927 56.7665 57.5136 55.0672 56.5302C53.3678 55.5554 52.7898 53.3816 53.7732 51.6822C54.748 49.9828 60.8122 46.5841 60.8122 46.5841C60.8122 46.5841 60.8985 53.5282 59.9151 55.2276V55.2362Z" fill="url(#paint8_radial_1886_5561)"/>
<path style="mix-blend-mode:overlay" d="M53.8769 54.6495C53.3249 53.2175 53.6613 51.6993 54.6274 51.2766C55.5936 50.8453 56.8185 51.6648 57.362 53.1054C57.914 54.546 57.5776 56.0556 56.6115 56.4783C55.6453 56.9096 54.4204 56.0901 53.8769 54.6495Z" fill="url(#paint9_radial_1886_5561)"/>
<path d="M50.0616 65.6217C49.0868 67.3124 46.913 67.899 45.2136 66.9156C43.5143 65.9409 42.9363 63.7671 43.9197 62.0677C44.9031 60.3683 50.9587 56.9696 50.9587 56.9696C50.9587 56.9696 51.045 63.9137 50.0616 65.6131V65.6217Z" fill="url(#paint10_radial_1886_5561)"/>
<path style="mix-blend-mode:overlay" d="M44.0225 65.0353C43.4704 63.6033 43.8068 62.0851 44.7729 61.6624C45.7391 61.2311 46.964 62.0506 47.5075 63.4912C48.0595 64.9318 47.7231 66.4414 46.757 66.864C45.7908 67.2954 44.5659 66.4759 44.0225 65.0353Z" fill="url(#paint11_radial_1886_5561)"/>
<path d="M39.8235 43.2063C39.8235 43.2063 41.8824 40.5022 42.4314 39.53C42.9805 38.5579 44.386 35.3956 41.8275 32.2781C41.8275 32.2781 38.7694 28.451 34.2013 31.2054C34.2013 31.2054 31.9448 32.5854 31.6922 35.0884L29.282 46.3741C29.282 46.3741 28.678 50.1006 32.6421 50.4582L39.1647 49.7431L36.6336 58.5929L45.8355 48.5475C46.4229 47.8267 46.7743 46.9105 46.7084 45.9774C46.6261 44.8042 45.9508 43.4968 43.3264 43.4633L39.8125 43.2063H39.8235Z" fill="url(#paint12_linear_1886_5561)"/>
</g>
<defs>
<radialGradient id="paint0_radial_1886_5561" cx="0" cy="0" r="1" gradientUnits="userSpaceOnUse" gradientTransform="translate(22.6804 12.3652) rotate(-180) scale(42.8265 44.1491)">
<stop stop-color="#F0FAFF"/>
<stop offset="0.2" stop-color="#C4F2FE"/>
<stop offset="1" stop-color="#1F76FE"/>
</radialGradient>
<radialGradient id="paint1_radial_1886_5561" cx="0" cy="0" r="1" gradientUnits="userSpaceOnUse" gradientTransform="translate(105.515 -73.5279) rotate(126.03) scale(6.59704 9.59569)">
<stop stop-color="white"/>
<stop offset="0.1" stop-color="white" stop-opacity="0.85"/>
<stop offset="0.29" stop-color="white" stop-opacity="0.59"/>
<stop offset="0.47" stop-color="white" stop-opacity="0.38"/>
<stop offset="0.63" stop-color="white" stop-opacity="0.22"/>
<stop offset="0.78" stop-color="white" stop-opacity="0.1"/>
<stop offset="0.91" stop-color="white" stop-opacity="0.03"/>
<stop offset="1" stop-color="white" stop-opacity="0"/>
</radialGradient>
<radialGradient id="paint2_radial_1886_5561" cx="0" cy="0" r="1" gradientUnits="userSpaceOnUse" gradientTransform="translate(119.964 -63.268) rotate(126.03) scale(5.18116 7.53624)">
<stop stop-color="white"/>
<stop offset="0.1" stop-color="white" stop-opacity="0.85"/>
<stop offset="0.29" stop-color="white" stop-opacity="0.59"/>
<stop offset="0.47" stop-color="white" stop-opacity="0.38"/>
<stop offset="0.63" stop-color="white" stop-opacity="0.22"/>
<stop offset="0.78" stop-color="white" stop-opacity="0.1"/>
<stop offset="0.91" stop-color="white" stop-opacity="0.03"/>
<stop offset="1" stop-color="white" stop-opacity="0"/>
</radialGradient>
<radialGradient id="paint3_radial_1886_5561" cx="0" cy="0" r="1" gradientUnits="userSpaceOnUse" gradientTransform="translate(17.8359 35.4931) rotate(-25.71) scale(2.64939 7.70973)">
<stop stop-color="white"/>
<stop offset="0.1" stop-color="white" stop-opacity="0.85"/>
<stop offset="0.29" stop-color="white" stop-opacity="0.59"/>
<stop offset="0.47" stop-color="white" stop-opacity="0.38"/>
<stop offset="0.63" stop-color="white" stop-opacity="0.22"/>
<stop offset="0.78" stop-color="white" stop-opacity="0.1"/>
<stop offset="0.91" stop-color="white" stop-opacity="0.03"/>
<stop offset="1" stop-color="white" stop-opacity="0"/>
</radialGradient>
<radialGradient id="paint4_radial_1886_5561" cx="0" cy="0" r="1" gradientUnits="userSpaceOnUse" gradientTransform="translate(18.8567 48.0151) rotate(180) scale(6.42271 12.9421)">
<stop stop-color="#F0FAFF"/>
<stop offset="0.2" stop-color="#C4F2FE"/>
<stop offset="1" stop-color="#1F76FE"/>
</radialGradient>
<radialGradient id="paint5_radial_1886_5561" cx="0" cy="0" r="1" gradientUnits="userSpaceOnUse" gradientTransform="translate(163.58 -11.826) rotate(156.04) scale(1.91201 2.7811)">
<stop stop-color="white"/>
<stop offset="0.1" stop-color="white" stop-opacity="0.85"/>
<stop offset="0.29" stop-color="white" stop-opacity="0.59"/>
<stop offset="0.47" stop-color="white" stop-opacity="0.38"/>
<stop offset="0.63" stop-color="white" stop-opacity="0.22"/>
<stop offset="0.78" stop-color="white" stop-opacity="0.1"/>
<stop offset="0.91" stop-color="white" stop-opacity="0.03"/>
<stop offset="1" stop-color="white" stop-opacity="0"/>
</radialGradient>
<radialGradient id="paint6_radial_1886_5561" cx="0" cy="0" r="1" gradientUnits="userSpaceOnUse" gradientTransform="translate(24.5787 58.4008) rotate(180) scale(6.42786 12.9421)">
<stop stop-color="#F0FAFF"/>
<stop offset="0.2" stop-color="#C4F2FE"/>
<stop offset="1" stop-color="#1F76FE"/>
</radialGradient>
<radialGradient id="paint7_radial_1886_5561" cx="0" cy="0" r="1" gradientUnits="userSpaceOnUse" gradientTransform="translate(169.87 -1.68199) rotate(156.04) scale(1.91201 2.7811)">
<stop stop-color="white"/>
<stop offset="0.1" stop-color="white" stop-opacity="0.85"/>
<stop offset="0.29" stop-color="white" stop-opacity="0.59"/>
<stop offset="0.47" stop-color="white" stop-opacity="0.38"/>
<stop offset="0.63" stop-color="white" stop-opacity="0.22"/>
<stop offset="0.78" stop-color="white" stop-opacity="0.1"/>
<stop offset="0.91" stop-color="white" stop-opacity="0.03"/>
<stop offset="1" stop-color="white" stop-opacity="0"/>
</radialGradient>
<radialGradient id="paint8_radial_1886_5561" cx="0" cy="0" r="1" gradientUnits="userSpaceOnUse" gradientTransform="translate(54.9127 48.0151) rotate(180) scale(6.42786 12.9421)">
<stop stop-color="#F0FAFF"/>
<stop offset="0.2" stop-color="#C4F2FE"/>
<stop offset="1" stop-color="#1F76FE"/>
</radialGradient>
<radialGradient id="paint9_radial_1886_5561" cx="0" cy="0" r="1" gradientUnits="userSpaceOnUse" gradientTransform="translate(200.602 -12.2635) rotate(156.04) scale(1.91201 2.7811)">
<stop stop-color="white"/>
<stop offset="0.1" stop-color="white" stop-opacity="0.85"/>
<stop offset="0.29" stop-color="white" stop-opacity="0.59"/>
<stop offset="0.47" stop-color="white" stop-opacity="0.38"/>
<stop offset="0.63" stop-color="white" stop-opacity="0.22"/>
<stop offset="0.78" stop-color="white" stop-opacity="0.1"/>
<stop offset="0.91" stop-color="white" stop-opacity="0.03"/>
<stop offset="1" stop-color="white" stop-opacity="0"/>
</radialGradient>
<radialGradient id="paint10_radial_1886_5561" cx="0" cy="0" r="1" gradientUnits="userSpaceOnUse" gradientTransform="translate(45.3085 64.8218) rotate(30) scale(8.53136 8.53136)">
<stop stop-color="#D0F2FF"/>
<stop offset="0.2" stop-color="#D5F3FF"/>
<stop offset="1" stop-color="#458BE5"/>
</radialGradient>
<radialGradient id="paint11_radial_1886_5561" cx="0" cy="0" r="1" gradientUnits="userSpaceOnUse" gradientTransform="translate(190.981 -1.98143) rotate(156.04) scale(1.91201 2.7811)">
<stop stop-color="white"/>
<stop offset="0.1" stop-color="white" stop-opacity="0.85"/>
<stop offset="0.29" stop-color="white" stop-opacity="0.59"/>
<stop offset="0.47" stop-color="white" stop-opacity="0.38"/>
<stop offset="0.63" stop-color="white" stop-opacity="0.22"/>
<stop offset="0.78" stop-color="white" stop-opacity="0.1"/>
<stop offset="0.91" stop-color="white" stop-opacity="0.03"/>
<stop offset="1" stop-color="white" stop-opacity="0"/>
</radialGradient>
<linearGradient id="paint12_linear_1886_5561" x1="43.513" y1="44.4019" x2="26.0426" y2="44.4019" gradientUnits="userSpaceOnUse">
<stop stop-color="#FE761C"/>
<stop offset="0.84" stop-color="#FFE436"/>
<stop offset="1" stop-color="#FFE87A"/>
</linearGradient>
</defs>
</svg>
